<svg width="268" height="111" viewBox="0 0 268 111" fill="none" xmlns="http://www.w3.org/2000/svg">
<path d="M124.642 85.4964L116 79.2857L142.591 37L158.545 55.5L179.818 21.1429L194.31 42.6821C192.272 42.7702 190.344 43.0125 188.527 43.4089C186.71 43.8054 184.915 44.356 183.142 45.0607L180.217 40.7L160.008 73.3393L143.92 54.7071L124.642 85.4964ZM225.422 111L208.802 94.4821C207.03 95.7155 205.057 96.6405 202.886 97.2571C200.714 97.8738 198.476 98.1821 196.172 98.1821C189.524 98.1821 183.873 95.8696 179.22 91.2446C174.566 86.6196 172.24 81.0036 172.24 74.3964C172.24 67.7893 174.566 62.1732 179.22 57.5482C183.873 52.9232 189.524 50.6107 196.172 50.6107C202.819 50.6107 208.47 52.9232 213.123 57.5482C217.777 62.1732 220.103 67.7893 220.103 74.3964C220.103 76.6869 219.793 78.9113 219.173 81.0696C218.552 83.228 217.622 85.2321 216.381 87.0821L233 103.468L225.422 111ZM196.172 87.6107C199.894 87.6107 203.041 86.3333 205.611 83.7786C208.182 81.2238 209.467 78.0964 209.467 74.3964C209.467 70.6964 208.182 67.569 205.611 65.0143C203.041 62.4595 199.894 61.1821 196.172 61.1821C192.449 61.1821 189.302 62.4595 186.732 65.0143C184.161 67.569 182.876 70.6964 182.876 74.3964C182.876 78.0964 184.161 81.2238 186.732 83.7786C189.302 86.3333 192.449 87.6107 196.172 87.6107ZM208.005 45.325C206.32 44.6202 204.57 44.0476 202.753 43.6071C200.936 43.1667 199.052 42.9024 197.102 42.8143L224.358 0L233 6.21071L208.005 45.325Z" fill="#949A3E"/>
<path d="M20.544 97.64C16.576 97.64 13.248 97.064 10.56 95.912C7.91467 94.7173 5.888 93.1813 4.48 91.304C3.11467 89.384 2.38933 87.3787 2.304 85.288C2.304 84.904 2.432 84.584 2.688 84.328C2.944 84.072 3.264 83.944 3.648 83.944H9.344C9.89867 83.944 10.304 84.072 10.56 84.328C10.8587 84.5413 11.1147 84.8187 11.328 85.16C11.584 85.9707 12.0747 86.7813 12.8 87.592C13.5253 88.36 14.5067 89 15.744 89.512C17.024 90.024 18.624 90.28 20.544 90.28C23.616 90.28 25.8987 89.768 27.392 88.744C28.928 87.72 29.696 86.3333 29.696 84.584C29.696 83.3467 29.2907 82.3653 28.48 81.64C27.6693 80.872 26.4107 80.1893 24.704 79.592C23.04 78.952 20.8213 78.2907 18.048 77.608C14.848 76.84 12.16 75.9227 9.984 74.856C7.85067 73.7467 6.22933 72.36 5.12 70.696C4.05333 69.032 3.52 66.92 3.52 64.36C3.52 61.8853 4.18133 59.688 5.504 57.768C6.86933 55.848 8.78933 54.3333 11.264 53.224C13.7813 52.1147 16.768 51.56 20.224 51.56C22.9973 51.56 25.4507 51.944 27.584 52.712C29.7173 53.4373 31.488 54.4187 32.896 55.656C34.304 56.8507 35.3707 58.152 36.096 59.56C36.864 60.9253 37.2693 62.2693 37.312 63.592C37.312 63.9333 37.184 64.2533 36.928 64.552C36.7147 64.808 36.3947 64.936 35.968 64.936H30.016C29.6747 64.936 29.3333 64.8507 28.992 64.68C28.6507 64.5093 28.3733 64.1893 28.16 63.72C27.904 62.3973 27.072 61.2667 25.664 60.328C24.256 59.3893 22.4427 58.92 20.224 58.92C17.92 58.92 16.064 59.3467 14.656 60.2C13.248 61.0533 12.544 62.376 12.544 64.168C12.544 65.3627 12.8853 66.3653 13.568 67.176C14.2933 67.944 15.424 68.6267 16.96 69.224C18.5387 69.8213 20.608 70.4613 23.168 71.144C26.7947 71.9547 29.76 72.8933 32.064 73.96C34.368 75.0267 36.0533 76.392 37.12 78.056C38.1867 79.6773 38.72 81.7467 38.72 84.264C38.72 87.08 37.952 89.4907 36.416 91.496C34.9227 93.4587 32.8107 94.9733 30.08 96.04C27.3493 97.1067 24.1707 97.64 20.544 97.64ZM42.865 97C42.5237 97 42.2037 96.872 41.905 96.616C41.649 96.36 41.521 96.04 41.521 95.656C41.521 95.4853 41.5637 95.2933 41.649 95.08L57.073 53.8C57.201 53.3733 57.4357 53.0107 57.777 52.712C58.161 52.3707 58.673 52.2 59.313 52.2H66.289C66.929 52.2 67.4197 52.3707 67.761 52.712C68.1023 53.0107 68.3583 53.3733 68.529 53.8L83.953 95.08C83.9957 95.2933 84.017 95.4853 84.017 95.656C84.017 96.04 83.889 96.36 83.633 96.616C83.377 96.872 83.0783 97 82.737 97H77.169C76.5717 97 76.1237 96.872 75.825 96.616C75.569 96.3173 75.3983 96.04 75.313 95.784L72.305 87.976H53.297L50.289 95.784C50.2037 96.04 50.0117 96.3173 49.713 96.616C49.457 96.872 49.0303 97 48.433 97H42.865ZM55.537 80.616H70.065L62.769 60.84L55.537 80.616ZM104.144 97.64C101.84 97.64 99.6422 97.3627 97.5515 96.808C95.5035 96.2107 93.6688 95.3147 92.0475 94.12C90.4262 92.9253 89.1248 91.4533 88.1435 89.704C87.2048 87.9547 86.7142 85.8853 86.6715 83.496C86.6715 83.112 86.7995 82.792 87.0555 82.536C87.3115 82.2373 87.6315 82.088 88.0155 82.088H94.0955C94.6502 82.088 95.0555 82.2373 95.3115 82.536C95.6102 82.8347 95.8448 83.24 96.0155 83.752C96.2288 85.288 96.7195 86.5467 97.4875 87.528C98.2555 88.4667 99.2155 89.1707 100.368 89.64C101.562 90.0667 102.885 90.28 104.336 90.28C107.024 90.28 109.072 89.4053 110.48 87.656C111.93 85.9067 112.656 83.4747 112.656 80.36V59.752H90.9595C90.4902 59.752 90.1062 59.6027 89.8075 59.304C89.5515 59.0053 89.4235 58.6427 89.4235 58.216V53.736C89.4235 53.3093 89.5515 52.9467 89.8075 52.648C90.1062 52.3493 90.4902 52.2 90.9595 52.2H120.208C120.677 52.2 121.061 52.3493 121.36 52.648C121.658 52.9467 121.808 53.3307 121.808 53.8V80.616C121.808 84.1573 121.061 87.208 119.568 89.768C118.117 92.328 116.069 94.2907 113.424 95.656C110.821 96.9787 107.728 97.64 104.144 97.64ZM148.96 97.64C144.992 97.64 141.621 96.9573 138.848 95.592C136.117 94.184 134.026 92.2 132.576 89.64C131.125 87.0373 130.314 83.9227 130.144 80.296C130.101 78.5467 130.08 76.6693 130.08 74.664C130.08 72.6587 130.101 70.7387 130.144 68.904C130.314 65.32 131.125 62.2267 132.576 59.624C134.069 57.0213 136.181 55.0373 138.912 53.672C141.685 52.264 145.034 51.56 148.96 51.56C151.861 51.56 154.464 51.944 156.768 52.712C159.072 53.48 161.034 54.5467 162.656 55.912C164.277 57.2347 165.536 58.792 166.432 60.584C167.328 62.376 167.797 64.3173 167.84 66.408C167.882 66.792 167.754 67.112 167.456 67.368C167.2 67.624 166.88 67.752 166.496 67.752H160.416C159.946 67.752 159.562 67.6453 159.264 67.432C158.965 67.176 158.752 66.7707 158.624 66.216C157.941 63.4 156.768 61.48 155.104 60.456C153.44 59.432 151.37 58.92 148.896 58.92C146.037 58.92 143.754 59.7307 142.048 61.352C140.341 62.9307 139.424 65.5547 139.296 69.224C139.168 72.7227 139.168 76.3067 139.296 79.976C139.424 83.6453 140.341 86.2907 142.048 87.912C143.754 89.4907 146.037 90.28 148.896 90.28C151.37 90.28 153.44 89.768 155.104 88.744C156.768 87.6773 157.941 85.7573 158.624 82.984C158.752 82.3867 158.965 81.9813 159.264 81.768C159.562 81.5547 159.946 81.448 160.416 81.448H166.496C166.88 81.448 167.2 81.576 167.456 81.832C167.754 82.088 167.882 82.408 167.84 82.792C167.797 84.8827 167.328 86.824 166.432 88.616C165.536 90.408 164.277 91.9867 162.656 93.352C161.034 94.6747 159.072 95.72 156.768 96.488C154.464 97.256 151.861 97.64 148.96 97.64ZM221.905 97C221.435 97 221.051 96.8507 220.753 96.552C220.454 96.2533 220.305 95.8907 220.305 95.464V53.8C220.305 53.3307 220.454 52.9467 220.753 52.648C221.051 52.3493 221.435 52.2 221.905 52.2H226.961C227.558 52.2 228.006 52.3707 228.305 52.712C228.603 53.0107 228.795 53.2453 228.881 53.416L241.233 76.456L253.713 53.416C253.798 53.2453 253.99 53.0107 254.289 52.712C254.587 52.3707 255.035 52.2 255.633 52.2H260.625C261.094 52.2 261.478 52.3493 261.777 52.648C262.075 52.9467 262.225 53.3307 262.225 53.8V95.464C262.225 95.8907 262.075 96.2533 261.777 96.552C261.478 96.8507 261.094 97 260.625 97H255.249C254.779 97 254.395 96.8507 254.097 96.552C253.841 96.2533 253.713 95.8907 253.713 95.464V67.752L244.753 84.84C244.539 85.224 244.262 85.5653 243.921 85.864C243.579 86.12 243.131 86.248 242.577 86.248H239.953C239.355 86.248 238.886 86.12 238.545 85.864C238.246 85.5653 237.99 85.224 237.777 84.84L228.817 67.752V95.464C228.817 95.8907 228.667 96.2533 228.369 96.552C228.07 96.8507 227.707 97 227.281 97H221.905Z" fill="white"/>
</svg>
